<svg xmlns="http://www.w3.org/2000/svg" height="40" viewBox="0 -960 960 960" width="40"><path d="M189.058-5.304q-30.994 0-53.374-22.38-22.38-22.38-22.38-53.374v-581.884q0-31.06 22.38-53.486 22.38-22.427 53.374-22.427h388.761l-75.753 75.913H189.058v581.884h581.884V-395.92l75.913-75.913v390.776q0 30.994-22.427 53.374-22.426 22.38-53.486 22.38H189.058ZM480-372Zm173.573-348.276 51.652 50.652-276.486 275.421v73.464h72.464l277.406-276.928 50.428 50.174-297.682 298.681H356.812v-174.543l296.761-296.921Zm175.464 172.783L653.573-720.276l97.05-96.891q22.203-22.203 53.99-22.043 31.787.159 53.909 23.029l66.217 67.138q21.392 22.616 21.392 53.525 0 30.91-22.377 52.8l-94.717 95.225Z"/></svg>